<svg xmlns="http://www.w3.org/2000/svg" xmlns:xlink="http://www.w3.org/1999/xlink" width="209" height="30" viewBox="0 0 209 30">
    <defs>
        <path id="a" d="M0 0h208.297v29.55H0z"/>
        <path id="c" d="M0 0h208.297v29.55H0z"/>
        <path id="e" d="M0 0h208.297v29.55H0z"/>
        <path id="g" d="M0 0h208.297v29.55H0z"/>
        <path id="i" d="M0 0h208.297v29.55H0z"/>
        <path id="k" d="M0 0h208.297v29.55H0z"/>
        <path id="m" d="M0 0h208.297v29.55H0z"/>
    </defs>
    <g fill="none" fill-rule="evenodd">
        <mask id="b" fill="#fff">
            <use xlink:href="#a"/>
        </mask>
        <path fill="#E4002B" d="M36.875 21.421c0-.561.031-1.147.096-1.763.064-.616.16-1.262.288-1.94.362-1.854.815-3.54 1.359-5.055.543-1.515 1.13-2.736 1.759-3.664.895-1.303 1.839-2.344 2.831-3.121a9.61 9.61 0 0 1 3.294-1.682 23.163 23.163 0 0 1 3.518-.646 38.935 38.935 0 0 1 4.27-.213c2.366 0 4.342.158 5.925.471 1.584.312 2.95.81 4.102 1.489.939.561 1.632 1.368 2.081 2.426.446 1.057.67 2.41.67 4.06 0 .938-.071 1.907-.215 2.91a25.017 25.017 0 0 1-.664 3.12c-.447 1.673-1.004 3.181-1.671 4.521-.668 1.343-1.453 2.532-2.359 3.565-1.13 1.273-2.666 2.193-4.606 2.758-1.941.566-4.6.85-7.98.85-4.638 0-7.914-.614-9.828-1.844-1.913-1.227-2.87-3.309-2.87-6.242m15.853-9.448c-.78 0-1.462.149-2.044.445a3.648 3.648 0 0 0-1.435 1.336c-.523.842-.972 1.904-1.346 3.184-.374 1.278-.561 2.399-.561 3.358 0 .715.291 1.258.873 1.629.583.375 1.43.559 2.541.559.694 0 1.303-.106 1.827-.322a3.428 3.428 0 0 0 1.33-.974c.299-.355.561-.765.786-1.229a12.57 12.57 0 0 0 .657-1.749c.246-.799.434-1.51.561-2.13.129-.622.193-1.153.193-1.596 0-.843-.281-1.472-.843-1.888-.56-.415-1.409-.623-2.539-.623" mask="url(#b)"/>
        <mask id="d" fill="#fff">
            <use xlink:href="#c"/>
        </mask>
        <path fill="#E4002B" d="M67.021 21.896c2.073.302 3.887.521 5.44.654a48.6 48.6 0 0 0 4.163.203c1.946 0 3.268-.113 3.964-.339.698-.228 1.045-.632 1.045-1.213 0-.399-.117-.688-.35-.865-.234-.177-.622-.267-1.165-.267-.776 0-1.612.012-2.506.031h-.462c-3.074 0-5.221-.42-6.439-1.262-1.218-.841-1.826-2.275-1.826-4.302 0-1.553.297-3.09.894-4.61.597-1.52 1.39-2.775 2.381-3.769.948-.949 2.297-1.634 4.051-2.054 1.753-.421 4.233-.631 7.439-.631 2.068 0 4.214.09 6.442.267 2.226.179 4.506.446 6.839.802l-2.03 7.809a56.132 56.132 0 0 0-4.249-.684 31.742 31.742 0 0 0-3.674-.23c-2.57 0-4.328.126-5.27.385-.946.256-1.417.694-1.417 1.315 0 .395.133.667.399.81.267.146.981.218 2.143.218h3.938c2.315 0 3.999.394 5.05 1.182 1.051.789 1.576 2.041 1.576 3.757 0 1.607-.249 3.088-.75 4.438-.501 1.352-1.198 2.447-2.093 3.289-.991.95-2.319 1.641-3.986 2.073-1.666.432-3.842.649-6.525.649-2.353 0-4.755-.111-7.204-.326a91.647 91.647 0 0 1-7.444-.971l1.626-6.359z" mask="url(#d)"/>
        <mask id="f" fill="#fff">
            <use xlink:href="#e"/>
        </mask>
        <path fill="#E4002B" d="M114.043 12.241l-4.348 16.505H99.244l4.362-16.505h-6.68l2.157-8.096h23.43l-2.126 8.096z" mask="url(#f)"/>
        <g>
            <mask id="h" fill="#fff">
                <use xlink:href="#g"/>
            </mask>
            <path fill="#E4002B" d="M152.056 28.391l6.516-24.603h24.303l-2.092 7.872h-13.992l-.655 2.46h13.991l-1.407 5.277h-13.96l-.656 2.46h13.992l-1.743 6.534z" mask="url(#h)"/>
        </g>
        <g>
            <mask id="j" fill="#fff">
                <use xlink:href="#i"/>
            </mask>
            <path fill="#E4002B" d="M199.826 11.883l-4.347 16.508h-10.452l4.364-16.508h-6.682l2.158-8.096h23.43l-2.125 8.096z" mask="url(#j)"/>
        </g>
        <g>
            <mask id="l" fill="#fff">
                <use xlink:href="#k"/>
            </mask>
            <path fill="#E4002B" d="M0 27.996L7.826-.005h22.871c2.604 0 4.528.553 5.772 1.657 1.245 1.103 1.866 2.814 1.866 5.133 0 1.605-.189 3.247-.567 4.921-.379 1.675-.883 3.101-1.51 4.277-1.142 2.159-2.557 3.666-4.243 4.519-1.687.851-4.179 1.278-7.475 1.278H14.219l-1.734 6.216H0zm16.144-13.193h3.87c1.952 0 3.405-.346 4.361-1.04.957-.688 1.435-1.734 1.435-3.127 0-.749-.25-1.299-.75-1.653-.501-.357-1.278-.534-2.331-.534h-4.813l-1.772 6.354z" mask="url(#l)"/>
        </g>
        <g>
            <mask id="n" fill="#fff">
                <use xlink:href="#m"/>
            </mask>
            <path fill="#E4002B" d="M117.229 28.356L125.057.352h13.93l2.1 12.108c.039.244.115.762.231 1.555.116.79.269 1.854.462 3.191.23-1.14.585-2.583 1.061-4.325.076-.293.134-.508.173-.642L146.367.352h12.196l-7.86 28.004h-13.797l-2.543-10.745c-.127-.552-.277-1.226-.451-2.015-.173-.792-.351-1.635-.529-2.531-.232 1.339-.599 2.89-1.099 4.656l-3.044 10.635h-12.011z" mask="url(#n)"/>
        </g>
    </g>
</svg>
